<svg width="2107" height="483" viewBox="0 0 2107 483" fill="none" xmlns="http://www.w3.org/2000/svg">
<path d="M53.8227 240.646C53.8227 231.531 55.4057 222.543 56.6088 213.745C59.3316 194.757 64.9039 176.718 72.8823 159.945C81.7472 141.463 93.5248 124.69 107.645 110.132C108.975 108.74 110.305 107.474 111.635 106.145C126.135 92.0302 142.978 80.2574 161.468 71.3961C178.185 63.421 196.295 57.9145 215.291 55.1295V0.0633563C196.611 2.08878 178.565 6.26619 161.468 12.4058C142.282 19.1783 124.235 28.2293 107.645 39.3692C101.567 43.42 95.6778 47.724 89.9789 52.4078C76.6182 63.1046 64.5239 75.2571 53.8227 88.549C49.137 94.2455 44.8312 100.069 40.7786 106.208C29.6342 122.791 20.5793 140.83 13.804 160.008C7.72519 177.098 3.546 195.137 1.51973 213.809C0.506601 222.67 0 231.658 0 240.709V482.81H53.8227V321.409H161.468V267.609H53.8227V240.646Z" fill="white"/>
<path d="M107.645 375.146V482.747H161.468V375.146H107.645Z" fill="white"/>
<path d="M215.291 481.228C224.156 482.24 233.084 482.747 242.202 482.747H269.113V240.646C269.113 225.771 257.083 213.745 242.202 213.745C227.322 213.745 215.291 225.771 215.291 240.646V481.228Z" fill="white"/>
<path d="M484.404 240.646C484.404 231.594 483.898 222.607 482.885 213.745C480.858 195.074 476.679 177.035 470.537 159.945C463.762 140.767 454.707 122.728 443.562 106.145C439.51 100.069 435.204 94.1821 430.518 88.4856C419.817 75.1305 407.659 63.0413 394.362 52.3445C388.663 47.6608 382.838 43.3567 376.696 39.3059C360.106 28.1661 342.059 19.1149 322.873 12.3424C305.776 6.26613 287.73 2.08872 269.05 0V55.0662C288.046 57.7878 306.093 63.3578 322.873 71.3329C341.363 80.1941 358.143 91.9669 372.706 106.082C374.099 107.411 375.429 108.74 376.696 110.069C390.816 124.563 402.594 141.4 411.459 159.882C419.437 176.592 425.009 194.694 427.732 213.682C428.998 222.48 430.518 231.468 430.518 240.582V267.482H322.873V321.283H430.518V482.684H484.341V240.646H484.404Z" fill="white"/>
<path d="M322.936 375.146V482.747H376.759V375.146H322.936Z" fill="white"/>
<path d="M215.291 109.246C195.345 113.234 177.108 121.652 161.468 133.488C151.4 141.02 142.472 150.008 134.937 160.008C123.159 175.642 114.737 193.871 110.685 213.809H166.914C174.955 191.339 192.812 173.427 215.291 165.452V109.246Z" fill="white"/>
<path d="M349.468 159.945C341.932 149.881 332.941 140.957 322.936 133.425C307.296 121.652 289.06 113.234 269.113 109.246V165.452C291.592 173.49 309.449 191.339 317.491 213.809H373.719C369.667 193.871 361.245 175.642 349.468 159.945Z" fill="white"/>
<path d="M1415.16 481.671C1476.7 481.671 1513.43 445.087 1513.43 383.818V241.278H1457.9V383.818C1457.9 398.565 1454.42 409.895 1447.45 417.364C1440.3 425.086 1429.34 429.01 1414.78 429.01C1386.66 429.01 1372.42 413.819 1372.42 383.818V241.278H1315.49V383.818C1315.49 405.781 1320.3 424.959 1329.61 440.276L1329.86 440.15C1329.99 440.34 1330.05 440.529 1330.18 440.656C1330.31 440.846 1330.37 441.036 1330.5 441.162L1330.31 441.289C1331.32 442.935 1332.4 444.517 1333.54 446.099L1333.79 445.909C1334.04 446.289 1334.3 446.606 1334.55 446.985C1334.99 447.618 1335.37 448.125 1335.82 448.694L1335.63 448.884C1336.51 449.96 1337.4 451.036 1338.29 452.049L1338.54 451.796L1339.43 452.809C1339.81 453.188 1340.12 453.568 1340.5 454.011C1340.94 454.517 1341.45 455.024 1341.89 455.467L1341.7 455.657C1342.46 456.416 1343.29 457.176 1344.11 457.935L1344.36 457.682L1345.06 458.315C1346.2 459.391 1347.4 460.467 1348.67 461.417L1348.48 461.607C1349.43 462.366 1350.38 463.062 1351.39 463.759L1351.58 463.442L1352.53 464.138L1353.23 464.645C1354.12 465.278 1355.07 465.911 1356.02 466.543L1355.89 466.733C1357.47 467.683 1359.05 468.632 1360.7 469.518L1360.83 469.202C1361.21 469.392 1361.65 469.645 1362.03 469.898L1362.35 470.088C1362.85 470.404 1363.42 470.658 1363.93 470.911L1363.8 471.101C1378.24 478.063 1395.59 481.671 1415.16 481.671Z" fill="white"/>
<path d="M710.903 331.536V358.12H711.409L786.381 357.93L786.318 409.262L710.903 409.199V474.076H653.914V331.536C653.914 302.737 662.272 278.622 678.039 261.849C694.06 244.76 717.931 235.012 747.122 233.81C749.275 233.746 751.428 233.683 753.644 233.683C775.87 233.683 794.866 238.43 810.063 247.481L787.774 298.623C787.774 298.623 773.337 286.344 753.264 286.344C725.15 286.344 710.903 301.535 710.903 331.536Z" fill="white"/>
<path d="M1851.25 241.405H1794.26V473.696H1851.25V241.405Z" fill="white"/>
<path d="M2007.97 288.813C2038.36 288.813 2051.34 303.37 2051.34 337.549V366.285H2004.29C2004.29 404.135 2004.29 414.769 2004.23 417.807L2050.58 417.743H2051.34V473.759H2107L2106.68 337.549C2106.68 304.51 2098.39 278.749 2082.05 261.153C2065.27 243.051 2040.32 233.873 2007.97 233.873C1944.08 233.873 1908.93 270.71 1908.93 337.549V473.759H1965.98V337.549C1965.98 294.762 1986.18 288.813 2007.97 288.813Z" fill="white"/>
<path d="M1171.18 378.944C1171.43 378.691 1171.75 378.564 1172.13 378.564C1172.51 378.564 1172.89 378.754 1173.08 379.071L1236.66 473.949H1302.38L1211.39 338.752L1211.2 338.435L1211.45 338.119L1287.38 240.962H1224.75L1147.75 338.625L1146.87 339.765V241.089H1089.94V474.012H1146.93L1146.87 423.25C1146.87 412.996 1150.6 403.122 1157.44 395.4L1171.18 378.944Z" fill="white"/>
<path d="M1732.33 363.88C1724.1 354.196 1714.03 348.246 1702.82 343.752C1691.81 339.385 1677.75 335.207 1660.97 331.41C1646.28 328.055 1635.77 323.561 1629.18 320.523C1623.1 317.675 1620.13 313.624 1620.13 308.054C1620.13 302.358 1622.66 297.864 1627.85 294.256C1633.23 290.522 1641.97 288.686 1653.94 288.686C1673.25 288.686 1693.45 294.699 1714.09 306.662L1715.8 307.611L1736.26 254.76L1734.99 253.937C1724.23 247.165 1711.56 241.911 1697.44 238.43C1683.32 234.949 1668.82 233.177 1654.32 233.177C1633.04 233.177 1616.77 236.152 1602.02 242.924C1587.2 249.76 1575.93 259.254 1568.46 271.027C1560.98 282.863 1557.19 296.281 1557.19 310.966C1557.19 327.739 1561.36 341.284 1569.53 351.221C1577.64 361.032 1587.52 368.31 1598.79 372.741C1609.93 377.108 1623.36 380.147 1639.82 384.324C1654.83 388.122 1665.65 391.286 1672.3 394.451C1678.51 397.426 1680.22 403.059 1680.22 409.009C1680.22 420.528 1668.76 426.351 1646.15 426.351C1633.8 426.351 1621.08 424.199 1608.35 420.022C1595.56 415.845 1584.22 410.211 1574.54 403.439L1572.83 402.236L1550.98 454.771L1552.12 455.657C1562.69 463.632 1576.62 470.025 1593.53 474.772C1610.37 479.519 1627.98 481.924 1645.83 481.924C1666.92 481.924 1685.09 478.443 1699.97 471.48C1714.85 464.518 1726.19 455.087 1733.72 443.378C1741.2 431.668 1745 418.376 1745 403.945C1744.87 387.236 1740.63 373.754 1732.33 363.88Z" fill="white"/>
<path d="M981.409 241.848C968.872 237.228 954.625 234.949 939.111 234.949C923.407 234.949 909.16 237.228 896.813 241.658C859.327 254.95 838.684 287.61 838.684 333.499V384.451C838.684 430.402 859.327 462.999 896.813 476.291C909.16 480.721 923.407 483 939.111 483C954.625 483 968.872 480.658 981.409 476.101C1017.95 462.493 1038.08 429.959 1038.08 384.451V333.499C1038.08 287.99 1017.95 255.456 981.409 241.848ZM897.066 384.451V333.499C897.066 303.94 911.06 288.939 938.731 288.939C953.042 288.939 963.87 292.8 970.898 300.396C977.673 307.738 981.156 318.877 981.156 333.499V384.451C981.156 399.072 977.737 410.211 970.898 417.554C963.87 425.149 953.042 429.01 938.731 429.01C911.06 429.01 897.066 414.009 897.066 384.451ZM970.708 417.997C970.645 418.06 970.581 418.06 970.581 418.123C970.581 418.123 970.645 418.06 970.708 417.997Z" fill="white"/>
</svg>
